<svg xmlns="http://www.w3.org/2000/svg" width="512" height="512" viewBox="0 0 512 512">
  <defs>
    <linearGradient id="mark" x1="52" y1="10" x2="20" y2="56" gradientUnits="userSpaceOnUse">
      <stop offset="0%" stop-color="#5CC8FF"/>
      <stop offset="55%" stop-color="#2A8FE8"/>
      <stop offset="100%" stop-color="#1657C4"/>
    </linearGradient>
    <!-- Black = removed. Opens a ring of space for the lens and its handle. -->
    <mask id="lens">
      <rect width="64" height="64" fill="white"/>
      <circle cx="39" cy="34" r="9.5" fill="black"/>
      <line x1="44" y1="39" x2="48.8" y2="43.8" stroke="black" stroke-width="7" stroke-linecap="round"/>
    </mask>
  </defs>

  <rect width="512" height="512" rx="112" fill="#080C14"/>

  <g transform="translate(96 96) scale(5)">
    <g mask="url(#lens)">
      <path d="M12 14 H23 L32 41 L41 14 H52 L34.5 56 H29.5 Z" fill="url(#mark)"/>
      <g fill="url(#mark)">
        <rect x="7.5" y="11" width="4" height="4" opacity="0.9"/>
        <rect x="3.5" y="13.5" width="3" height="3" opacity="0.6"/>
        <rect x="8" y="6" width="3" height="3" opacity="0.7"/>
        <rect x="3" y="8.5" width="2.5" height="2.5" opacity="0.45"/>
        <rect x="11.5" y="3" width="2.5" height="2.5" opacity="0.5"/>
        <rect x="6.5" y="1.5" width="2" height="2" opacity="0.3"/>
        <rect x="1" y="3.5" width="2" height="2" opacity="0.25"/>
      </g>
    </g>
    <circle cx="39" cy="34" r="7" fill="none" stroke="url(#mark)" stroke-width="3.2"/>
    <line x1="44" y1="39" x2="48.8" y2="43.8" stroke="url(#mark)" stroke-width="3.2" stroke-linecap="round"/>
  </g>
</svg>
