<svg xmlns="http://www.w3.org/2000/svg" width="1200" height="630" viewBox="0 0 1200 630">
  <defs>
    <linearGradient id="bg" x1="0" y1="0" x2="1" y2="1">
      <stop offset="0%" stop-color="#0a0a0f"/>
      <stop offset="100%" stop-color="#1a1030"/>
    </linearGradient>
    <linearGradient id="accent" x1="0" y1="0" x2="1" y2="1">
      <stop offset="0%" stop-color="#8b5cf6"/>
      <stop offset="100%" stop-color="#6366f1"/>
    </linearGradient>
  </defs>
  <rect width="1200" height="630" fill="url(#bg)"/>
  <!-- Decorative grid dots -->
  <g opacity="0.05">
    <circle cx="100" cy="100" r="2" fill="#fff"/>
    <circle cx="300" cy="100" r="2" fill="#fff"/>
    <circle cx="500" cy="100" r="2" fill="#fff"/>
    <circle cx="700" cy="100" r="2" fill="#fff"/>
    <circle cx="900" cy="100" r="2" fill="#fff"/>
    <circle cx="1100" cy="100" r="2" fill="#fff"/>
    <circle cx="100" cy="300" r="2" fill="#fff"/>
    <circle cx="300" cy="300" r="2" fill="#fff"/>
    <circle cx="500" cy="300" r="2" fill="#fff"/>
    <circle cx="700" cy="300" r="2" fill="#fff"/>
    <circle cx="900" cy="300" r="2" fill="#fff"/>
    <circle cx="1100" cy="300" r="2" fill="#fff"/>
    <circle cx="100" cy="500" r="2" fill="#fff"/>
    <circle cx="300" cy="500" r="2" fill="#fff"/>
    <circle cx="500" cy="500" r="2" fill="#fff"/>
    <circle cx="700" cy="500" r="2" fill="#fff"/>
    <circle cx="900" cy="500" r="2" fill="#fff"/>
    <circle cx="1100" cy="500" r="2" fill="#fff"/>
  </g>
  <!-- Logo mark -->
  <rect x="80" y="80" width="60" height="60" rx="14" fill="url(#accent)"/>
  <text x="110" y="118" font-family="system-ui, sans-serif" font-size="32" font-weight="bold" fill="#fff" text-anchor="middle">V</text>
  <!-- Title -->
  <text x="80" y="260" font-family="system-ui, sans-serif" font-size="72" font-weight="bold" fill="#ffffff">AI Readiness</text>
  <text x="80" y="340" font-family="system-ui, sans-serif" font-size="72" font-weight="bold" fill="#ffffff">Scanner</text>
  <!-- Subtitle -->
  <text x="80" y="400" font-family="system-ui, sans-serif" font-size="28" fill="#a1a1aa">See how AI agents read your website</text>
  <!-- Score badge -->
  <rect x="80" y="440" width="220" height="50" rx="25" fill="url(#accent)" opacity="0.9"/>
  <text x="190" y="473" font-family="system-ui, sans-serif" font-size="20" font-weight="bold" fill="#fff" text-anchor="middle">Free scan · 30 seconds</text>
  <!-- URL -->
  <text x="80" y="560" font-family="system-ui, sans-serif" font-size="22" fill="#6b7280">visum.io</text>
  <!-- Decorative element -->
  <circle cx="1050" cy="500" r="180" fill="url(#accent)" opacity="0.08"/>
  <circle cx="1050" cy="500" r="120" fill="url(#accent)" opacity="0.06"/>
</svg>
